<?xml version="1.0" encoding="utf-8"?>
<!-- Generator: Adobe Illustrator 26.0.3, SVG Export Plug-In . SVG Version: 6.00 Build 0)  -->
<svg version="1.1" id="Calque_1" xmlns="http://www.w3.org/2000/svg" xmlns:xlink="http://www.w3.org/1999/xlink" x="0px" y="0px"
	 viewBox="0 0 303 203" style="enable-background:new 0 0 303 203;" xml:space="preserve">
<style type="text/css">
	.st0{fill:#40160D;}
	.st1{fill:#FFB85C;}
	.st2{fill:none;}
</style>
<g>
	<g>
		<g>
			<path class="st0" d="M154-0.1c-25.5,0-46.2,20.7-46.2,46.2s20.7,46.2,46.2,46.2c25.5,0,46.2-20.7,46.2-46.2S179.4-0.1,154-0.1z
				 M126.5,78c-1.9-1.6-3.6-3.4-5.2-5.4h8.4L126.5,78z M141.2,86.2c-3.5-1.1-6.8-2.7-9.9-4.6l4.6-9h9L141.2,86.2z M154,88.2
				c-2.3,0-4.5-0.2-6.7-0.5l3-15.1h7l3,15.1C158.2,88,156.1,88.2,154,88.2z M166.4,86.3l-3.8-13.7h9l4.7,9.1
				C173.3,83.7,170,85.2,166.4,86.3z M181.2,78.2l-3.3-5.6h8.8C185,74.6,183.2,76.5,181.2,78.2z M155.8,67.7l0.1-7.8h-5.3l-0.1,7.8
				h-32.6c-3.8-6.3-6-13.7-6-21.6c0-22.3,17.4-40.6,39.4-42.1l-0.1,9h5.1l0.1-9.1c22.2,1.2,39.9,19.6,39.9,42.1
				c0,7.9-2.2,15.3-6,21.6H155.8z"/>
		</g>
	</g>
	<g>
		<path class="st0" d="M138.1,27.3c2.7-1.9,6.2-3.2,10.5-2.9c7.5,0.5,14.6-4.8,18.9-9c0-1.8-0.2-3.1-0.3-3.5c-1.3-2.8-15,0.1-22.8,0
			c-7.9-0.1-7.2,5.9-7.2,5.9C137.2,20.1,137.6,23.4,138.1,27.3z"/>
		<path class="st0" d="M153.8,35.2c4.8,0.3,9.4-1.7,13.2-4.3c0.3-4.2,0.4-8.1,0.5-11.4c-4.1,3.5-9.6,7.1-15.8,7.8
			c-1.1,0.1-2.2,0.1-3.3,0.1c-4.1-0.3-7.3,1.2-9.8,3.3c0.5,3.2,1,6.7,1.6,10.1C143.2,37.6,147.6,34.8,153.8,35.2z"/>
		<path class="st0" d="M160.1,47.1c1.8,0.1,3.6-0.1,5.3-0.6c0.5-3.7,0.9-7.8,1.3-11.9c-3,1.7-6.3,3.1-9.8,3.5
			c-1.1,0.1-2.2,0.1-3.3,0.1c-6.1-0.4-10.2,3-12.7,6.5c0.9,4.7,1.8,9,2.6,12.1C146.2,52.2,151.5,46.5,160.1,47.1z"/>
		<path class="st0" d="M159.9,50.1c-8.6-0.6-13.3,6.6-15.1,10.5c0.1,0.3,0.3,0.5,0.4,0.6c1,1,12.7,1.2,16.9-2.2
			c1.1-0.9,2.1-4.5,2.9-9.3c-0.6,0.1-1.2,0.2-1.8,0.3C162.1,50.2,161,50.2,159.9,50.1z"/>
	</g>
</g>
<g>
	<path class="st1" d="M19.2,139.9h11.5c2.5,3.1,3.7,6.3,3.7,9.7c0,4-1.5,7.3-4.4,10c-2.9,2.7-6.5,4.1-10.7,4.1
		c-5.5,0-10.2-2.1-14.1-6.3c-3.9-4.2-5.8-9.3-5.8-15.3c0-6,2-11.1,5.9-15.1c3.9-4,8.8-6,14.7-6c2,0,4.2,0.4,6.7,1.2v12.1
		c-1.9-0.9-3.6-1.3-5.2-1.3c-2.8,0-5.2,0.9-7,2.7c-1.8,1.8-2.7,4.1-2.7,6.9c0,2.9,0.8,5.2,2.5,6.9c1.7,1.7,3.9,2.5,6.8,2.5
		c1.8,0,2.7-0.5,2.7-1.6c0-0.8-0.6-1.2-1.8-1.2h-2.9V139.9z"/>
	<path class="st1" d="M51.5,122v40.7H39.4V122H51.5z"/>
	<path class="st1" d="M76.8,139.9h11.5c2.5,3.1,3.7,6.3,3.7,9.7c0,4-1.5,7.3-4.4,10c-2.9,2.7-6.5,4.1-10.7,4.1
		c-5.5,0-10.2-2.1-14.1-6.3c-3.9-4.2-5.8-9.3-5.8-15.3c0-6,2-11.1,5.9-15.1c3.9-4,8.8-6,14.7-6c2,0,4.2,0.4,6.7,1.2v12.1
		c-1.9-0.9-3.6-1.3-5.2-1.3c-2.8,0-5.2,0.9-7,2.7c-1.8,1.8-2.7,4.1-2.7,6.9c0,2.9,0.8,5.2,2.5,6.9c1.7,1.7,3.9,2.5,6.8,2.5
		c1.8,0,2.7-0.5,2.7-1.6c0-0.8-0.6-1.2-1.8-1.2h-2.9V139.9z"/>
	<path class="st1" d="M111.7,142.3V153h-3.5v9.7H96.2v-25.9c0-5,1.4-8.9,4.1-11.7c2.7-2.8,6.6-4.2,11.5-4.2c4.8,0,8.3,1.3,10.6,3.8
		c2.3,2.5,3.4,6.4,3.4,11.6v26.3h-12.1v-25.5c0-1.6-0.2-2.7-0.6-3.3c-0.4-0.6-1.1-0.9-2-0.9c-1.9,0-2.8,1.4-2.8,4.2v5.1H111.7z"/>
	<path class="st1" d="M145.2,122v40.7h-12.1V122H145.2z M168.4,122l-10.7,18.4l10.7,22.2h-13.6l-9.2-22.5L156,122H168.4z"/>
	<path class="st1" d="M194.1,137.8v9.1h-7.9c-1.1,0-1.8,0.2-2.3,0.5c-0.4,0.3-0.7,0.9-0.7,1.6c0,0.9,0.2,1.4,0.7,1.7
		c0.5,0.3,1.4,0.4,2.8,0.4h8.1v11.6h-9.5c-4.5,0-7.9-1.1-10.2-3.2c-2.4-2.1-3.5-5.2-3.5-9.2v-15.9c0-3.9,1.1-6.9,3.4-9.1
		c2.2-2.1,5.4-3.2,9.4-3.2h10.5v11.7h-7.7c-2.1,0-3.1,0.7-3.1,2c0,0.8,0.2,1.3,0.7,1.7c0.5,0.3,1.4,0.5,2.7,0.5H194.1z"/>
	<path class="st1" d="M201.8,122h14.8c8.8,0,13.1,3.4,13.1,10.3c0,3.4-1.5,6.3-4.5,8.5c4.3,1.9,6.5,5.3,6.5,10.1
		c0,3.7-1.3,6.7-3.8,8.9c-1.3,1.1-2.6,1.8-4,2.2c-1.4,0.4-3.4,0.6-5.8,0.6h-2.3v-10.5h2.1c1.2,0,2.1-0.2,2.6-0.5
		c0.5-0.3,0.7-0.8,0.7-1.6c0-1.3-1-2-3-2h-2.3v-10.8c2.2,0,3.3-0.8,3.3-2.3c0-1.4-1-2.1-3-2.1h-2.2v29.8h-12.1V122z"/>
	<path class="st1" d="M251.4,142.3V153h-3.5v9.7h-12.1v-25.9c0-5,1.4-8.9,4.1-11.7c2.7-2.8,6.6-4.2,11.5-4.2c4.8,0,8.3,1.3,10.6,3.8
		c2.3,2.5,3.4,6.4,3.4,11.6v26.3h-12.1v-25.5c0-1.6-0.2-2.7-0.6-3.3c-0.4-0.6-1.1-0.9-2-0.9c-1.9,0-2.8,1.4-2.8,4.2v5.1H251.4z"/>
	<path class="st1" d="M272.8,122h14.8c8.8,0,13.1,3.4,13.1,10.3c0,3.4-1.5,6.3-4.5,8.5c4.3,1.9,6.5,5.3,6.5,10.1
		c0,3.7-1.3,6.7-3.8,8.9c-1.3,1.1-2.6,1.8-4,2.2c-1.4,0.4-3.4,0.6-5.8,0.6h-2.3v-10.5h2.1c1.2,0,2.1-0.2,2.6-0.5
		c0.5-0.3,0.7-0.8,0.7-1.6c0-1.3-1-2-3-2h-2.3v-10.8c2.2,0,3.3-0.8,3.3-2.3c0-1.4-1-2.1-3-2.1h-2.2v29.8h-12.1V122z"/>
</g>
<g>
	<path class="st0" d="M29.9,195.1c-0.1,0-0.1,0.1-0.2,0.1s-0.1,0-0.1-0.1c0,0.1-0.6,0.4-1.1,0.4c-0.3,0-0.6-0.1-0.8-0.2
		c-1.5-0.2-2.3-1.8-2.3-3.1c0-2.2,2.2-3.5,4.3-3.5c0.9,0,1.7,0.3,2.3,0.8l0,0c0.2,0.1,0.3,0.1,0.4,0.1c0.1,0,0.1,0,0.1-0.1l0.2-0.3
		c0.3-0.5,0.9-1.4,1-1.8c-1.7-0.5-4.9-1.8-4.9-4.6c0-1.6,1-2.9,2.2-3.9h0c0.2-0.2,0.4-0.2,0.7-0.2c0.6,0,0.8,0.4,0.8,0.9
		c0,0.2-0.2,0.4-0.4,0.7l-0.2,0.3c-0.6,0.6-1.2,1.5-1.2,2.3c0,1.3,2.2,2.5,3.5,2.5c0.5,0,0.5-0.2,0.6-0.7c0.8-1.9,1.8-4.2,3.6-5.6
		c0.4-0.4,1-0.7,1.7-0.7l0.2-0.1c0.1-0.1,0.3-0.1,0.5-0.1c1.6,0,2.2,0.8,2.2,2.2c0,1.1-0.3,1.8-0.7,2.4c-0.4,0.5-1.3,1.6-1.7,2
		c-0.7,0.8-1.2,1.1-2,1.5c-0.2,0.1-0.6,0.4-0.9,0.5c-0.5,0.2-1,0.2-1.6,0.4c-0.6,0.4-0.6,1-1,2c-0.3,0.4-0.9,1.2-0.9,1.6
		c0-0.1,0.7,0.9,1.3,1.3v0.1h0c0.8,0.8,2,1.6,3,1.6c0.8,0,1.5-0.2,2.3-0.6c0.4-0.1,0.7-0.5,1.3-0.5c0.4,0,0.7,0.1,0.7,0.6v0.3
		c-0.4,0.4-0.8,0.7-1.2,0.9c-0.5,1.1-1.5,1.3-2.9,1.3c-0.6,0-1,0-1.5-0.2c-0.9-0.3-2.4-1.4-3.1-2.1l-0.3-0.5l-0.4-0.4
		c-0.1,0-0.1,0-0.2,0C32.8,193.2,31.5,194.9,29.9,195.1z M28.6,193.3c1.4,0,2.9-1,2.9-2.3c-0.1-0.2-1.1-0.3-1.4-0.4c0,0,0,0-0.1,0
		c-1.1,0-2.6,0.4-2.6,1.6C27.4,192.8,28,193.3,28.6,193.3z M40.6,180.2c-0.4,0-0.6,0.1-0.9,0.3c-1,1-1.5,1.5-1.8,2.4v0
		c-0.6,1.6-0.7,1.3-0.7,1.6c1-0.1,2.3-1.1,3.2-2.4c0.1-0.2,0.3-0.5,0.4-0.5v-0.1c0.1-0.1,0.3-0.8,0.3-1.1v-0.1
		C40.9,180.3,40.7,180.2,40.6,180.2z"/>
	<path class="st0" d="M43.8,192.3c0.2-2.5,0.9-4.3,2.9-6.4c1-1,3.1-1.6,4.2-1.6c1.1,0,1.4,1.6,1.3,2.2c-0.1,1.1-0.5,1.8-1.2,2.8
		c-0.6,0.8-3,2.5-4.7,2.5h-0.6c-0.2,0.4,0,1.4,0.7,1.6c0.8,0,1.5,0,2.6-0.7c1.2-0.7,2.8-2.5,3.6-2.6c0.3,0,0.4,0.3,0.4,0.5
		c-0.1,1-1.8,2.7-3.6,3.7c-1.2,0.7-2.4,0.8-3.3,0.8C45.2,195.1,43.6,193.9,43.8,192.3z M46.1,190.3c1.4-0.2,3.2-1.4,3.7-2.3
		c0.4-0.5,0.7-1.4,0.2-1.8c-0.8-0.3-2.2,0.7-2.8,1.6C46.8,188.5,46.2,189.4,46.1,190.3L46.1,190.3z"/>
	<path class="st0" d="M60.9,192.9l0.4-1h0c0.7-2,2.8-8,4.2-10.7c0.9-2,2.7-5.3,4.4-5.3c0.5,0,1.1,0.7,1.3,1c0.3,0.7,0.3,1.1,0.3,2
		c-0.1,1.6-1,3.5-1.7,4.6c-0.9,1.4-3.1,3.3-4.8,4.2c-0.2,0.5-0.4,1-0.4,1c1.1-0.7,2.5-1.3,3.7-1.9c0.3-0.2,2.2-1.2,2.6-1.1
		c0.4,0,1.3,0.2,1.4,1.1c0,0.7-0.3,1.2-0.8,1.4c-0.3,0.1-0.5-0.2-0.8-0.1c-1.1,0.4-3.7,1.6-4.1,2c0,1,0.2,2,0.5,3.2
		c0,0.1,0.5,0.3,0.6,0.3c1.4-0.1,4.1-2.6,4.8-3.6c0.3-0.5,0.4-1,1-0.9c0.1,0,0.5,0.2,0.5,0.3c0.1,2-2.6,4.4-3.9,5.2
		c-0.4,0.2-1.6,0.8-2.1,0.8c-1.1,0-2.3-0.4-2.6-1.6c-0.3-0.6-0.6-1.7-0.4-2.6c0,0-0.1-0.1-0.1,0c-0.1,0-0.2,0.1-0.3,0.1
		c-0.4,0.3-1.1,0.9-1.6,1.9c-0.2,0.3,0,0.1-0.2,0.5c0,0.4-0.3,1.1-0.5,1.4c0,0-0.3,0.1-0.4,0.1c-0.5,0-1.3-0.1-1.4-0.5
		C60.2,194.1,60.7,193.4,60.9,192.9z M68.4,182.8c0.6-0.9,1.6-2.8,1.6-3.9c0-0.5-0.1-0.6-0.3-0.8h-0.1c-0.3,0-0.6,0.3-0.9,0.9
		c-0.6,0.6-1.7,3.2-1.7,3.2c-0.5,1-0.8,1.6-1.1,2.6c0,0,0,0.3-0.1,0.3c-0.2,0.5,0.1-0.3-0.2,0.3C66.5,185,67.3,184.4,68.4,182.8z"/>
	<path class="st0" d="M71.7,192.3c0.2-2.5,0.9-4.3,2.9-6.4c1-1,3.1-1.6,4.2-1.6c1.1,0,1.4,1.6,1.3,2.2c-0.1,1.1-0.5,1.8-1.2,2.8
		c-0.6,0.8-3,2.5-4.7,2.5h-0.6c-0.2,0.4,0,1.4,0.7,1.6c0.8,0,1.5,0,2.6-0.7c1.2-0.7,2.8-2.5,3.6-2.6c0.3,0,0.4,0.3,0.4,0.5
		c-0.1,1-1.8,2.7-3.6,3.7c-1.2,0.7-2.4,0.8-3.3,0.8C73.2,195.1,71.6,193.9,71.7,192.3z M74,190.3c1.4-0.2,3.2-1.4,3.7-2.3
		c0.4-0.5,0.7-1.4,0.2-1.8c-0.8-0.3-2.2,0.7-2.8,1.6C74.7,188.5,74.1,189.4,74,190.3L74,190.3z"/>
	<path class="st0" d="M79.9,193c-0.5-0.6-0.1-4.3,1-6.7c0.8-1.9,1.7-4.1,2.3-5.3c0.9-2,2.6-5,4.4-5c1.2,0,1.6,1.8,1.6,3.1
		c-0.1,1.6-1.1,3.8-2.1,5.3c-1,1.4-3.2,3.1-4.8,3.7c-0.1,0.1-0.3,0.9-0.5,1.8c-0.1,0.6-0.2,1.2-0.1,1.7c0.1,0.4,0.8,1,1.4,1
		c1.1-0.1,2.4-1,2.5-2.2c-0.4-0.2-0.9-0.9-0.9-1.6c0-0.9,0.2-1.6,0.8-2.1c0.4-0.4,1.4-0.8,2-0.7c0.2,0,0.8,0.3,0.9,0.8
		c0.2,0.5,0,1.6,0,2.1c0.1,0,0.4,0.4,0.9,0.4c0.5,0,1.7-0.2,2.6-1.3c0.2,0,0.3,0.2,0.3,0.3c0,0.5-0.3,1.4-0.6,1.7
		c-1,1.2-3.1,1.4-4,0.9c-0.6,1.8-2.4,3.6-4.5,3.8C81.8,194.9,80.5,194.1,79.9,193z M85.8,183.3c0.6-0.9,1.8-3.4,1.9-4.4
		c0-0.5-0.1-0.6-0.3-0.8h-0.1c-1-0.1-2.5,4-2.7,4.1c-0.4,0.7-1.2,2.8-1.5,3.6C84.1,185.4,84.8,184.9,85.8,183.3z"/>
	<path class="st0" d="M95.8,192.9c0-0.1,0-0.2,0-0.3c0,0,0,0,0,0c0-0.1,0.1-0.4,0.1-0.4c-0.4,0.1-0.6,0.6-0.6,0.7
		c0,0-0.3,0.1-0.3,0.1c-1,0.9-1.6,1.8-3.3,1.8c-1.2,0-1.9-1.4-1.8-2.8c0-1.6,1.2-3.5,2.5-4.8c1.1-1.1,2.7-1.9,4.4-1.9
		c0.5,0,1.1,0.2,1.3,0.4c0,0.1,0.4,0.5,0.4,0.6c0.3-0.7,0.9-0.6,1-0.7c0.4,0,0.5,1,0.5,1.1c0,0-1.1,1.9-1.1,2c0,0.2-0.5,0.7-0.6,0.8
		c-0.5,0.7-0.9,1.5-0.9,2.3c0,0.3,0.1,1.1,0.4,1.1c0.8,0.2,2-1,2.3-1.3c0.3-0.4,1.3-1.6,1.7-1.9c0.1,0,0.3,0.2,0.5,0.2h0
		c0,0.1,0,0.2,0.1,0.3c0.1,1.1-1,2.3-1.7,3.1c-0.6,0.5-2,1.6-3.2,1.6C96.6,194.8,95.8,193.5,95.8,192.9z M93.5,188.1
		c-1,1.2-2.1,2.7-2.1,3.8c0,0.5,0.2,0.8,0.7,1c0.9-0.1,1.8-1.3,2.5-1.8c0.5-0.4,1.7-2,2.5-3.1c0.1-0.2,0.1-0.5,0.1-0.7
		c0-0.2-0.3-0.7-0.5-0.7C95.6,186.6,94.3,187.2,93.5,188.1z"/>
	<path class="st0" d="M101.1,193c-0.5-0.6-0.1-4.3,1-6.7c0.8-1.9,1.7-4.1,2.3-5.3c0.9-2,2.6-5,4.4-5c1.2,0,1.6,1.8,1.6,3.1
		c-0.1,1.6-1.1,3.8-2.1,5.3c-1,1.4-3.2,3.1-4.8,3.7c-0.1,0.1-0.3,0.9-0.5,1.8c-0.1,0.6-0.2,1.2-0.1,1.7c0.1,0.4,0.8,1,1.4,1
		c1.1-0.1,2.4-1,2.5-2.2c-0.4-0.2-0.9-0.9-0.9-1.6c0-0.9,0.2-1.6,0.8-2.1c0.4-0.4,1.4-0.8,2-0.7c0.2,0,0.8,0.3,0.9,0.8
		c0.2,0.5,0,1.6,0,2.1c0.1,0,0.4,0.4,0.9,0.4c0.5,0,1.7-0.2,2.6-1.3c0.2,0,0.3,0.2,0.3,0.3c0,0.5-0.3,1.4-0.6,1.7
		c-1,1.2-3.1,1.4-4,0.9c-0.6,1.8-2.4,3.6-4.5,3.8C103,194.9,101.7,194.1,101.1,193z M107,183.3c0.6-0.9,1.8-3.4,1.9-4.4
		c0-0.5-0.1-0.6-0.3-0.8h-0.1c-1-0.1-2.5,4-2.7,4.1c-0.4,0.7-1.2,2.8-1.5,3.6C105.3,185.4,106,184.9,107,183.3z"/>
	<path class="st0" d="M119.6,198.9c1.2-3.2,1.3-3.2,2.4-6.5c0.1-0.4,0.7-1.3,0.7-1.8v-0.1c-0.4,0.4-1,1.2-1.4,1.5
		c-0.2,0.1-0.9,0.3-1.1,0.2c-0.5-0.2-0.5-0.6-0.2-0.9c0.9-1,0.8-1.2,2-2.8c0.5-0.7,1.6-2.2,2-2.7l0.2-0.6c0.1-0.2,0.4-0.4,0.6-0.6
		c0.5-0.1,0.8,0.3,1,0.3c0,0.1,0.2,0.5,0.2,0.6v0.1c0,0.1-0.1,0.5-0.1,0.5c-0.3,0.8-0.2,0.4-0.4,1.1c0,0,0,0.1,0,0.1
		c0.9-1,1.2-1.2,2.4-1.9c0.2-0.1,1-0.4,1-0.3l0.8-0.1c1.4,0.1,2.3,1,2.2,2.7c0,0.4-0.3,1.6-0.5,2c-0.3,0.7-1.9,2.5-3.5,3.5
		c0,0.5,0.6,1,0.9,1.1c1.8-0.2,3.5-3.1,4.8-4.8h0.1c0.3,0,0.7,0.4,0.7,0.7c0,0.6-1.5,2.9-1.8,3.2c-0.5,0.7-2.4,2.5-3.4,2.5
		c-1.1,0.1-2.2-0.5-2.2-0.7c-0.1,0-0.8-1.1-0.7-1.2c-0.4,0.2-0.8,0.3-1.2,0.4h-0.1c-0.6,0.1-1.3-0.4-1.5-1.2l-2.6,6.6
		c-0.2,0.4-0.5,2.5-0.9,2.7c-0.5,0.2-1.4-0.8-1.3-1.4C119,200.3,119.3,199.7,119.6,198.9z M125.9,192.2c0.5-0.1,0.9-0.4,1.4-0.5
		c1.3-1,2.8-2.1,2.8-3.9c0-0.3-0.1-0.7-0.6-0.7c-0.8,0-2.2,0.6-2.8,1.2c-0.7,0.7-2.2,2.5-2.1,3.1C125,192.1,125,192.3,125.9,192.2z"
		/>
	<path class="st0" d="M133.8,189.2c0.1-0.1,0.5-0.7,0.6-0.8c0,0,0.2-0.3,0.2-0.4c0.9-0.5,1-0.5,1.8-0.8c0,0,0.1-0.1,0.1-0.1
		c0.1-0.1,0.6-0.8,1.1-1.3c0.3-0.3,1.1-0.9,1.8-0.8c0.3,0,0.5,0,0.8,0.3c0.6,0.5,1,1.6,1.1,2.4c0.1,0.7-0.1,1.4-0.2,2
		c0,0.1-0.5,1.1-0.6,1.2c0.5,0,1.4-0.1,1.9-0.4c0.5-0.2,1.3-1,1.5-1.4c0,0,0.5-0.3,0.5-0.3c0.3,0,0.5,0.5,0.5,0.7
		c0,1.2-1.4,2.3-2.6,2.7c-0.9,0.3-2.1,0.4-2.7,0.4c-1.3,1.5-2.1,2.8-4.9,2.8h-0.5c-0.9-0.6-1.7-1.2-1.8-2.1
		C132.4,192,133.2,190.3,133.8,189.2z M135,193.8c1.1,0,1.9-0.7,2.5-1.2c-0.1-0.1-0.4-0.1-0.5-0.2c-1.1-0.4-1.5-0.9-1.6-1.8
		c0-0.2,0.2-0.4,0.2-0.7v0c-0.7,0.4-1.4,2.4-1.2,3.5C134.3,193.5,134.7,193.8,135,193.8z M138.5,191c0.9-0.4,1.1-2.4,1.1-3.1
		c0-0.2-0.1-0.5-0.4-0.5c-0.6,0-1.2,0.6-1.3,1c0,0.1,0,0.3,0,0.3c0,0-0.3,0.2-0.4,0.2c-0.4,0.3-0.6,1.1-0.6,1.5
		C136.9,190.9,138.2,191.1,138.5,191z"/>
	<path class="st0" d="M146.4,194l-0.3,0.2c-0.6,0.3-1.2,0.6-2,0.6c-1.1,0-1.8-1-1.9-2c0-0.9,0.6-2.7,1.1-3.7c0.4-1,2.1-3.9,2.9-3.9
		c0.5,0,0.8,0.3,0.9,0.8c0,0.2,0,0.3-0.1,0.5c-0.6,1.1-1.5,2.4-1.8,2.9c-0.4,0.7-1.1,2-1.1,2.9c0,0.1-0.1,0.6,0.3,0.6l0.3-0.1
		c0.9-0.2,1.6-1.2,2.3-2.2l0.1-0.2c0.3-0.3,0.8-1.2,1-1.5l1.6-2.6c0.2-0.4,0.6-1.1,1.2-1.3c0.8,0,1,0.4,1,1.1c0,0.4-0.4,0.9-0.7,1.4
		l-1,1.6c-0.3,0.5-0.5,0.9-0.7,1.5c-0.2,0.7-0.5,1.7-0.2,2.2c0.3,0.3,1.8-0.5,2.5-1.1c0.5-0.4,1.2-1.3,1.7-1.3
		c0.5,0,0.6,0.3,0.6,0.6c0,0.1,0,0.2,0,0.3c-0.7,1.6-2.8,3.2-4.8,3.4h0c-0.1,0-0.2,0-0.3,0c-0.6,0-1.6-0.4-1.7-1.5
		C147.1,193.4,146.5,193.9,146.4,194z"/>
	<path class="st0" d="M156.3,192c0.6-1.2,1.7-3,2.7-4.2l0-0.2c-0.3,0-0.7,0.1-0.9,0.1c-0.4,0-0.8-0.3-1.1-0.4
		c-0.1,0-1.6,2.5-1.9,2.9c-0.3,0.6-1.2,1.5-1.9,1.6c-0.4,0.1-1.2,0.1-1.2-0.5c0.7-0.7,1.6-2,2.3-3.1c0.1-0.3,1.2-1.8,1.2-2.1
		c0-0.2-0.3-0.3-0.3-0.6c-0.1-1,0.6-1.9,1.1-2.4c0.3-0.4,1.1-0.7,1.7-0.8c0.5,0,1.2,0.3,1.3,0.7c0,0.6-0.5,1.6-0.9,2.2l-0.3,0.5
		c0.1,0.1,0.5,0.4,0.6,0.4c0.7,0,1.5-0.4,2-0.9h0c0.3-0.4,0.6-0.5,1.1-0.6c0.7,0,0.9,0.5,0.9,0.8c0,0.1-0.1,0.3-0.2,0.4l-0.1,0.2
		l-1.8,2.3c-0.1,0.1-0.3,0.4-0.4,0.5v0c-0.5,0.6-1.2,1.8-1.6,2.6l-0.4,0.9c-0.2,0.4-0.2,0.7-0.1,0.9c0.3,0.4,1.4-0.3,2.5-1.3
		c0.8-0.8,1.7-2.2,2-2.4c0.2,0,0.8-0.1,1,0.1l0.1,0.1c-0.3,1.8-1.7,3.4-3.2,4.4c-0.9,0.7-2,1-3.2,0.9c-0.6-0.1-1.2-1-1.2-1.1
		C156,193,156.2,192.9,156.3,192z"/>
	<path class="st0" d="M171.6,190.4c0.9-2.6,2.5-6.9,3.6-9.1c0.9-2,2.7-5.3,4.4-5.3c0.5,0,1.1,0.7,1.3,1c0.3,0.7,0.3,1.1,0.3,2
		c-0.1,1.6-1.4,4.4-2.2,5.5c-1,1.6-3.1,3.6-4.8,4.2c-0.1,0.1-0.9,2.1-1.2,2.7l-0.1,0.1c-0.1,0.3,0.1,1.2,0.8,1.3
		c0.7-0.1,2.1-1.4,2.4-2.1c0.3-0.5,1.2-2,1.8-1.8c0.5,0,0.7,0.1,0.7,0.4c0,0.1,0,0.3-0.2,0.8c-0.3,1-1.5,2.4-2.2,3.2
		c-0.5,0.5-1.8,1.5-3.1,1.5c-1.1,0-2.1-1.1-2.1-1.5c0-0.1-0.2-0.5-0.2-0.9C170.9,192,171.3,191,171.6,190.4z M177.8,183.3
		c0.6-0.9,1.8-3.4,1.9-4.4c0-0.5-0.1-0.6-0.3-0.8h-0.1c-0.3,0-0.6,0.3-0.9,0.9c-0.6,0.6-1.7,3.2-1.7,3.2c-0.5,1-1,2.1-1.4,3.1
		c0,0,0,0.3-0.1,0.3c-0.2,0.5,0,0-0.3,0.6C175.9,185.8,176.8,184.9,177.8,183.3z"/>
	<path class="st0" d="M176.7,192.3c0.2-2.5,0.9-4.3,2.9-6.4c1-1,3.1-1.6,4.2-1.6c1.1,0,1.4,1.6,1.3,2.2c-0.1,1.1-0.5,1.8-1.2,2.8
		c-0.6,0.8-3,2.5-4.7,2.5h-0.6c-0.2,0.4,0,1.4,0.7,1.6c0.8,0,1.5,0,2.6-0.7c1.2-0.7,2.8-2.5,3.6-2.6c0.3,0,0.4,0.3,0.4,0.5
		c-0.1,1-1.8,2.7-3.6,3.7c-1.2,0.7-2.4,0.8-3.3,0.8C178.2,195.1,176.6,193.9,176.7,192.3z M179,190.3c1.4-0.2,3.2-1.4,3.7-2.3
		c0.4-0.5,0.7-1.4,0.2-1.8c-0.8-0.3-2.2,0.7-2.8,1.6C179.7,188.5,179.1,189.4,179,190.3L179,190.3z"/>
	<path class="st0" d="M188,191.5c0.4-0.1,1.4,0,1.7-0.1c0.1-0.6-0.1-2.7-0.3-2.7l-0.4-1.3c-0.3,0.3-1.7,2.4-2.2,3
		c-0.3,0.4-0.7,0.8-1,0.7c-0.5,0-0.9-0.4-0.8-0.8c0.3-0.6,0.7-1,1.1-1.5c0.5-0.8,1.4-2,2.4-3.6c0.1-0.4,0.1-1.5,1-1.5
		c0.6-0.1,1.3,0.3,1.4,0.9c0,0.6-0.5,0.9-0.5,1.4c0.5,1.6,1.2,2.7,1.3,4.1c0,0.5,0,0.8,0,1l0.4-0.1c1.3-0.8,1.2-0.9,2.4-2.1
		c0.1-0.1,0.1-0.1,0.2-0.1c-0.1,0,0.7-0.1,0.7,0.3c0,0,0.3,0.3,0.1,1c-0.6,1-1.2,1.5-2,2.1c-0.7,0.4-1,0.5-1.9,0.6
		c0,0.8-1,1.8-1.5,2.2c-0.7,0.4-1.5,0.5-2.3,0.5c-0.9,0-2.1-0.5-2.1-1.5C185.5,192.4,186.4,191.8,188,191.5z M188,193.9
		c0.4-0.1,1.4-0.3,1.5-0.9c-1.4-0.3-2.3,0.4-2,0.8C187.5,193.8,187.7,193.9,188,193.9z"/>
	<path class="st0" d="M202.9,193c-0.5-0.6-0.1-4.3,1-6.7c0.8-1.9,1.7-4.1,2.3-5.3c0.9-2,2.6-5,4.4-5c1.2,0,1.6,1.8,1.6,3.1
		c-0.1,1.6-1.1,3.8-2.1,5.3c-1,1.4-3.2,3.1-4.8,3.7c-0.1,0.1-0.3,0.9-0.5,1.8c-0.1,0.6-0.2,1.2-0.1,1.7c0.1,0.4,0.8,1,1.4,1
		c1.1-0.1,2.4-1,2.5-2.2c-0.4-0.2-0.9-0.9-0.9-1.6c0-0.9,0.2-1.6,0.8-2.1c0.4-0.4,1.4-0.8,2-0.7c0.2,0,0.8,0.3,0.9,0.8
		c0.2,0.5,0,1.6,0,2.1c0.1,0,0.4,0.4,0.9,0.4c0.5,0,1.7-0.2,2.6-1.3c0.2,0,0.3,0.2,0.3,0.3c0,0.5-0.3,1.4-0.6,1.7
		c-1,1.2-3.1,1.4-4,0.9c-0.6,1.8-2.4,3.6-4.5,3.8C204.8,194.9,203.5,194.1,202.9,193z M208.8,183.3c0.6-0.9,1.8-3.4,1.9-4.4
		c0-0.5-0.1-0.6-0.3-0.8h-0.1c-1-0.1-2.5,4-2.7,4.1c-0.4,0.7-1.2,2.8-1.5,3.6C207.1,185.4,207.8,184.9,208.8,183.3z"/>
	<path class="st0" d="M212.9,192.3c0.2-2.5,0.9-4.3,2.9-6.4c1-1,3.1-1.6,4.2-1.6c1.1,0,1.4,1.6,1.3,2.2c-0.1,1.1-0.5,1.8-1.2,2.8
		c-0.6,0.8-3,2.5-4.7,2.5h-0.6c-0.2,0.4,0,1.4,0.7,1.6c0.8,0,1.5,0,2.6-0.7c1.2-0.7,2.8-2.5,3.6-2.6c0.3,0,0.4,0.3,0.4,0.5
		c-0.1,1-1.8,2.7-3.6,3.7c-1.2,0.7-2.4,0.8-3.3,0.8C214.3,195.1,212.7,193.9,212.9,192.3z M215.2,190.3c1.4-0.2,3.2-1.4,3.7-2.3
		c0.4-0.5,0.7-1.4,0.2-1.8c-0.8-0.3-2.2,0.7-2.8,1.6C215.9,188.5,215.3,189.4,215.2,190.3L215.2,190.3z"/>
	<path class="st0" d="M226.7,192.9c0-0.1,0-0.2,0-0.3c0,0,0,0,0,0c0-0.1,0.1-0.4,0.1-0.4c-0.4,0.1-0.6,0.6-0.6,0.7
		c0,0-0.3,0.1-0.3,0.1c-1,0.9-1.6,1.8-3.3,1.8c-1.2,0-1.9-1.4-1.8-2.8c0-1.6,1.2-3.5,2.5-4.8c1.1-1.1,2.7-1.9,4.4-1.9
		c0.5,0,1.1,0.2,1.3,0.4c0,0.1,0.4,0.5,0.4,0.6c0.3-0.7,0.9-0.6,1-0.7c0.4,0,0.5,1,0.5,1.1c0,0-1.1,1.9-1.1,2c0,0.2-0.5,0.7-0.6,0.8
		c-0.5,0.7-0.9,1.5-0.9,2.3c0,0.3,0.1,1.1,0.4,1.1c0.8,0.2,2-1,2.3-1.3c0.3-0.4,1.3-1.6,1.7-1.9c0.1,0,0.3,0.2,0.5,0.2h0
		c0,0.1,0,0.2,0.1,0.3c0.1,1.1-1,2.3-1.7,3.1c-0.6,0.5-2,1.6-3.2,1.6C227.5,194.8,226.7,193.5,226.7,192.9z M224.5,188.1
		c-1,1.2-2.1,2.7-2.1,3.8c0,0.5,0.2,0.8,0.7,1c0.9-0.1,1.8-1.3,2.5-1.8c0.5-0.4,1.7-2,2.5-3.1c0.1-0.2,0.1-0.5,0.1-0.7
		c0-0.2-0.3-0.7-0.5-0.7C226.5,186.6,225.2,187.2,224.5,188.1z"/>
	<path class="st0" d="M235.5,194l-0.3,0.2c-0.6,0.3-1.2,0.6-2,0.6c-1.1,0-1.8-1-1.9-2c0-0.9,0.6-2.7,1.1-3.7c0.4-1,2.1-3.9,2.9-3.9
		c0.5,0,0.8,0.3,0.9,0.8c0,0.2,0,0.3-0.1,0.5c-0.6,1.1-1.5,2.4-1.8,2.9c-0.4,0.7-1.1,2-1.1,2.9c0,0.1-0.1,0.6,0.3,0.6l0.3-0.1
		c0.9-0.2,1.6-1.2,2.3-2.2l0.1-0.2c0.3-0.3,0.8-1.2,1-1.5l1.6-2.6c0.2-0.4,0.6-1.1,1.2-1.3c0.8,0,1,0.4,1,1.1c0,0.4-0.4,0.9-0.7,1.4
		l-1,1.6c-0.3,0.5-0.5,0.9-0.7,1.5c-0.2,0.7-0.5,1.7-0.2,2.2c0.3,0.3,1.8-0.5,2.5-1.1c0.5-0.4,1.2-1.3,1.7-1.3
		c0.5,0,0.6,0.3,0.6,0.6c0,0.1,0,0.2,0,0.3c-0.7,1.6-2.8,3.2-4.8,3.4h0c-0.1,0-0.2,0-0.3,0c-0.6,0-1.6-0.4-1.7-1.5
		C236.1,193.4,235.6,193.9,235.5,194z"/>
	<path class="st0" d="M240,198.2c0.6-1.3,0.6-1.5,1.7-4c-0.5-0.1-1.1-0.8-0.8-1.9c0.2-0.7,1.1-0.7,1.8-0.3c0.7-2,3.3-8,4.6-10.7
		c0.9-2,2.7-5.3,4.4-5.3c0.5,0,1.1,0.7,1.3,1c0.3,0.7,0.3,1.1,0.3,2c-0.1,1.6-1.4,4.4-2.2,5.5c-1,1.6-3.2,3.6-4.8,4.1
		c-0.3,0.4-1.5,3.5-1.8,4.1c0.5,0.1,1.3,0.1,1.9-0.1c1.1-0.5,2.6-1.8,3.5-2.9c0.3-0.3,0.5-0.5,0.6-0.6c0.5,0,0.7,0.1,0.7,0.4
		c0,0.1,0,0.2,0,0.3l-0.1,0.5c-0.4,1.2-1.5,2.6-2.4,3.4c-0.6,0.5-1.7,0.9-2.5,1c-0.5,0.1-1.6,0.1-2.5,0c-0.3,0.7-0.7,1.6-0.8,1.7
		c-0.7,1.9-0.9,2.8-1.4,4.1c-0.3,0.7-1,1-1.7,0.9c-0.5,0-0.8-0.7-0.7-1C239,200.1,239.7,198.8,240,198.2z M249.9,183.3
		c0.6-0.9,1.8-3.4,1.9-4.4c0-0.5-0.1-0.6-0.3-0.8h-0.1c-0.3,0-0.6,0.3-0.9,0.9c-0.6,0.6-1.7,3.2-1.7,3.2c-0.5,1-1,2.1-1.4,3.1
		c0,0,0,0.3-0.1,0.3c-0.2,0.5,0,0-0.3,0.6C247.9,185.8,248.8,184.9,249.9,183.3z"/>
	<path class="st0" d="M252.9,191.5c0.4-0.1,1.4,0,1.7-0.1c0.1-0.6-0.1-2.7-0.3-2.7l-0.4-1.3c-0.3,0.3-1.7,2.4-2.2,3
		c-0.3,0.4-0.7,0.8-1,0.7c-0.5,0-0.9-0.4-0.8-0.8c0.3-0.6,0.7-1,1.1-1.5c0.5-0.8,1.4-2,2.4-3.6c0.1-0.4,0.1-1.5,1-1.5
		c0.6-0.1,1.3,0.3,1.4,0.9c0,0.6-0.5,0.9-0.5,1.4c0.5,1.6,1.2,2.7,1.3,4.1c0,0.5,0,0.8,0,1l0.4-0.1c1.3-0.8,1.2-0.9,2.4-2.1
		c0.1-0.1,0.1-0.1,0.2-0.1c-0.1,0,0.7-0.1,0.7,0.3c0,0,0.3,0.3,0.1,1c-0.6,1-1.2,1.5-2,2.1c-0.7,0.4-1,0.5-1.9,0.6
		c0,0.8-1,1.8-1.5,2.2c-0.7,0.4-1.5,0.5-2.3,0.5c-0.9,0-2.1-0.5-2.1-1.5C250.4,192.4,251.3,191.8,252.9,191.5z M252.9,193.9
		c0.4-0.1,1.4-0.3,1.5-0.9c-1.4-0.3-2.3,0.4-2,0.8C252.3,193.8,252.5,193.9,252.9,193.9z"/>
	<path class="st0" d="M270.3,191.2L270.3,191.2c0.4,0.2,1,0.7,1,1.1c0,1.1-1.3,2.9-2.5,2.9c-0.7,0-1.3-0.8-1.3-1.5
		C267.5,192.7,269.1,191.2,270.3,191.2z M269.8,188c0-0.1,0.3-0.7,0.3-0.7c0-0.1,0.2-0.8,0.2-0.9c0.3-0.6,1.4-2.5,1.5-3.2
		c0.2-0.5,1.5-3,1.8-3.5c0.1-0.3,1.1-1.6,1.3-1.9c0.3-0.5,1-1.3,1.7-1.3c0.5,0,1,0.6,1,1.1c0,0,0,0.1,0,0.1
		c-2.4,2.1-4.2,6.7-5.5,9.5l-0.2,0.6c-0.4,0.9,0,1.6-1.2,1.6c-0.1,0-0.4,0-0.5,0c-0.3-0.2-0.5-0.6-0.5-1
		C269.7,188.3,269.8,188,269.8,188z"/>
</g>
<rect x="-39.3" y="-16" class="st2" width="38.9" height="31.8"/>
</svg>
